<svg id="upload" xmlns="http://www.w3.org/2000/svg" width="40.844" height="46.078" viewBox="0 0 40.844 46.078">
  <path id="Path_1404" data-name="Path 1404" d="M40.881,23.665,23.114,41.432a9.776,9.776,0,0,1-13.034.912,9.5,9.5,0,0,1-.689-14.06l20.75-20.75a6.176,6.176,0,0,1,8.184-.655,5.94,5.94,0,0,1,.456,8.809L21.147,33.322a2.375,2.375,0,1,1-3.358-3.358L32.483,15.27a1.782,1.782,0,0,0,0-2.52h0a1.779,1.779,0,0,0-2.517,0L15.511,27.2a6.173,6.173,0,0,0-.653,8.182,5.939,5.939,0,0,0,8.809.458L41.014,18.495a9.777,9.777,0,0,0,.912-13.034,9.5,9.5,0,0,0-14.06-.689l-20.6,20.6C2.437,30.2,1.665,38.038,6.016,43.294a13.056,13.056,0,0,0,19.33.943L43.4,26.185a1.782,1.782,0,0,0,0-2.52h0A1.779,1.779,0,0,0,40.881,23.665Z" transform="translate(-3.157 -1.989)" fill="rgba(106,111,115,0.8)"/>
</svg>
